<svg fill="none" xmlns="http://www.w3.org/2000/svg" viewBox="0 0 268 58"><path fill-rule="evenodd" clip-rule="evenodd" d="M38.443 13.572A22.502 22.502 0 0 0 23.76 7h-.03a.986.986 0 0 0-.97.95 1.014 1.014 0 0 0 .943 1.072c11.046.64 19.595 9.934 19.324 21.008-.271 11.074-9.265 19.938-20.329 20.036-11.064.098-20.213-8.606-20.679-19.674a1.028 1.028 0 0 0-1.055-.965 1.018 1.018 0 0 0-.704.325 1.03 1.03 0 0 0-.26.573v.279c.508 9.999 7.547 18.472 17.288 20.785 9.79 2.326 19.932-2.134 24.845-10.925a22.56 22.56 0 0 0-3.697-26.913l.007.02ZM22.514 48.347c10.182.063 18.564-8.002 18.905-18.19.341-10.188-7.482-18.797-17.645-19.417a1.007 1.007 0 0 0-.078 2.015c7.43.53 13.623 5.9 15.208 13.186a16.813 16.813 0 0 1-8.35 18.325 16.773 16.773 0 0 1-19.916-2.857 1.012 1.012 0 0 0-1.407 0 1.03 1.03 0 0 0 0 1.409 18.697 18.697 0 0 0 13.283 5.53ZM35.58 29.968c.235-6.919-4.95-12.825-11.834-13.48l-.106-.028a.972.972 0 0 1-.915-1.007 1.042 1.042 0 0 1 1.013-.973h.183c7.883.826 13.785 7.616 13.513 15.546-.273 7.93-6.626 14.299-14.547 14.58a1 1 0 0 1-1.013-.978c0-.55.437-1 .985-1.014 6.913-.186 12.487-5.727 12.721-12.646Zm-6.318 6.313a9.566 9.566 0 0 0 2.074-10.418 9.547 9.547 0 0 0-8.822-5.903 9.547 9.547 0 0 0-8.821 5.903 9.566 9.566 0 0 0 2.074 10.418 9.554 9.554 0 0 0 13.495 0Z" fill="#fff"/><path d="M79.415 20.688c-.16-1.49-.83-2.648-2.012-3.478-1.17-.83-2.693-1.244-4.568-1.244-1.318 0-2.449.199-3.392.597-.943.397-1.665.937-2.165 1.619-.5.682-.755 1.46-.767 2.335 0 .727.165 1.358.495 1.892.34.534.8.989 1.38 1.364.58.363 1.222.67 1.927.92.704.25 1.414.46 2.13.63l3.273.819a22.63 22.63 0 0 1 3.801 1.244 13.396 13.396 0 0 1 3.29 1.978 8.775 8.775 0 0 1 2.318 2.88c.568 1.125.852 2.444.852 3.955 0 2.045-.523 3.846-1.568 5.403-1.045 1.546-2.557 2.756-4.534 3.631-1.966.864-4.347 1.295-7.142 1.295-2.716 0-5.074-.42-7.074-1.261-1.989-.84-3.545-2.068-4.67-3.682-1.114-1.613-1.716-3.58-1.807-5.898h6.221c.091 1.216.466 2.228 1.125 3.035.66.806 1.517 1.409 2.574 1.806 1.069.398 2.262.597 3.58.597 1.375 0 2.58-.205 3.614-.614 1.045-.42 1.863-1 2.454-1.738.59-.75.892-1.625.903-2.625-.011-.91-.278-1.66-.8-2.25-.523-.603-1.256-1.103-2.2-1.5-.931-.41-2.022-.773-3.272-1.091l-3.972-1.023c-2.875-.738-5.148-1.858-6.818-3.358-1.66-1.511-2.489-3.517-2.489-6.017 0-2.057.557-3.858 1.67-5.403 1.126-1.546 2.654-2.745 4.586-3.597 1.932-.864 4.12-1.295 6.563-1.295 2.477 0 4.647.431 6.51 1.295 1.876.852 3.347 2.04 4.416 3.563 1.068 1.511 1.619 3.25 1.653 5.216h-6.085ZM91.342 46V19.818h6.17V46h-6.17Zm3.103-29.898c-.978 0-1.819-.324-2.523-.971-.705-.66-1.057-1.45-1.057-2.37 0-.931.352-1.721 1.057-2.369.704-.659 1.545-.989 2.523-.989.988 0 1.83.33 2.522.989.705.648 1.057 1.438 1.057 2.37 0 .92-.352 1.71-1.057 2.369-.693.647-1.534.971-2.522.971Zm20.799 40.262c-2.216 0-4.119-.301-5.71-.904-1.591-.59-2.869-1.386-3.835-2.386-.966-1-1.637-2.108-2.011-3.324l5.556-1.347c.25.512.614 1.017 1.091 1.517.478.512 1.12.932 1.926 1.262.819.34 1.847.511 3.086.511 1.75 0 3.198-.426 4.346-1.278 1.148-.841 1.722-2.227 1.722-4.16v-4.96h-.307c-.318.637-.784 1.29-1.398 1.96-.602.671-1.403 1.234-2.403 1.688-.989.455-2.233.682-3.733.682-2.012 0-3.835-.472-5.472-1.415-1.625-.954-2.92-2.375-3.886-4.261-.955-1.898-1.432-4.273-1.432-7.125 0-2.875.477-5.301 1.432-7.278.966-1.99 2.267-3.495 3.903-4.518 1.637-1.034 3.461-1.55 5.472-1.55 1.534 0 2.795.26 3.784.783 1 .512 1.795 1.131 2.386 1.858.591.716 1.04 1.392 1.347 2.029h.341v-4.33h6.085v26.608c0 2.239-.534 4.091-1.602 5.557-1.068 1.466-2.529 2.563-4.381 3.29-1.852.727-3.954 1.09-6.307 1.09Zm.051-15.58c1.307 0 2.421-.318 3.341-.954.921-.637 1.62-1.552 2.097-2.745.477-1.193.716-2.625.716-4.295 0-1.648-.239-3.091-.716-4.33-.466-1.238-1.159-2.199-2.08-2.88-.909-.694-2.028-1.04-3.358-1.04-1.375 0-2.522.358-3.443 1.074-.92.715-1.613 1.698-2.079 2.948-.466 1.24-.699 2.648-.699 4.228 0 1.602.233 3.005.699 4.21.477 1.193 1.176 2.125 2.096 2.795.932.66 2.074.99 3.426.99Zm24.733-10.125V46h-6.17V19.818h5.898v4.449h.306a7.49 7.49 0 0 1 2.881-3.494c1.33-.864 2.972-1.296 4.926-1.296 1.807 0 3.381.387 4.722 1.16 1.352.772 2.398 1.891 3.136 3.357.75 1.466 1.12 3.245 1.108 5.335V46h-6.17V30.284c0-1.75-.455-3.12-1.364-4.108-.898-.988-2.142-1.483-3.733-1.483-1.079 0-2.04.239-2.88.716-.83.466-1.483 1.142-1.961 2.029-.466.886-.699 1.96-.699 3.221Zm30.614 15.87c-1.659 0-3.153-.296-4.483-.887-1.318-.602-2.364-1.489-3.136-2.659-.762-1.17-1.142-2.614-1.142-4.33 0-1.477.272-2.698.818-3.664a6.33 6.33 0 0 1 2.233-2.319c.943-.58 2.006-1.017 3.187-1.312a25.917 25.917 0 0 1 3.699-.665c1.534-.159 2.779-.301 3.733-.426.955-.136 1.648-.34 2.08-.614.443-.284.664-.721.664-1.312v-.102c0-1.285-.38-2.279-1.142-2.983-.761-.705-1.858-1.057-3.289-1.057-1.512 0-2.711.33-3.597.988-.875.66-1.466 1.438-1.773 2.336l-5.761-.819c.455-1.59 1.205-2.92 2.25-3.988 1.045-1.08 2.324-1.887 3.835-2.42 1.512-.546 3.182-.819 5.012-.819 1.261 0 2.517.148 3.767.444 1.25.295 2.392.784 3.426 1.465 1.034.67 1.863 1.586 2.488 2.745.637 1.159.955 2.608.955 4.346V46h-5.932v-3.597h-.204c-.375.728-.904 1.41-1.586 2.046-.67.625-1.517 1.13-2.539 1.517-1.012.375-2.199.562-3.563.562Zm1.602-4.535c1.239 0 2.313-.244 3.222-.733.909-.5 1.608-1.159 2.096-1.977.5-.818.75-1.71.75-2.676v-3.085c-.193.159-.522.306-.988.443-.455.136-.966.256-1.534.358-.568.102-1.131.193-1.688.273-.557.08-1.039.147-1.449.204-.92.125-1.744.33-2.471.614-.727.284-1.301.682-1.722 1.193-.42.5-.63 1.148-.63 1.943 0 1.136.414 1.994 1.244 2.574.829.58 1.886.87 3.17.87Zm24.597-30.903V46h-6.171V11.09h6.171ZM203.186 46V19.818h6.171V46h-6.171Zm3.102-29.898c-.977 0-1.818-.324-2.522-.971-.705-.66-1.057-1.45-1.057-2.37 0-.931.352-1.721 1.057-2.369.704-.659 1.545-.989 2.522-.989.989 0 1.83.33 2.523.989.705.648 1.057 1.438 1.057 2.37 0 .92-.352 1.71-1.057 2.369-.693.647-1.534.971-2.523.971ZM215.361 46v-3.92l13.5-16.927v-.221h-13.057v-5.114h20.608v4.21L223.56 40.665v.221h13.295V46h-21.494Zm38.135.511c-2.625 0-4.892-.545-6.801-1.636-1.898-1.102-3.358-2.66-4.381-4.67-1.023-2.023-1.534-4.404-1.534-7.142 0-2.694.511-5.057 1.534-7.091 1.034-2.046 2.477-3.637 4.329-4.773 1.853-1.148 4.029-1.722 6.529-1.722 1.614 0 3.136.262 4.568.784a10.323 10.323 0 0 1 3.818 2.387c1.114 1.08 1.989 2.454 2.625 4.125.637 1.659.955 3.636.955 5.932v1.892h-21.46v-4.16h15.545c-.011-1.181-.267-2.233-.767-3.153a5.577 5.577 0 0 0-2.097-2.199c-.886-.534-1.92-.8-3.102-.8-1.261 0-2.369.306-3.324.92a6.347 6.347 0 0 0-2.233 2.386c-.522.977-.789 2.051-.801 3.221v3.631c0 1.523.279 2.83.835 3.92.557 1.08 1.336 1.91 2.336 2.49 1 .567 2.17.852 3.511.852.898 0 1.71-.125 2.437-.375a5.414 5.414 0 0 0 1.893-1.142 4.76 4.76 0 0 0 1.21-1.858l5.761.647a8.992 8.992 0 0 1-2.079 3.989c-1.012 1.125-2.307 2-3.887 2.625-1.579.614-3.386.92-5.42.92Z" fill="#fff"/></svg>