<svg fill="none" xmlns="http://www.w3.org/2000/svg" viewBox="0 0 45 45"><path fill-rule="evenodd" clip-rule="evenodd" d="M38.443 6.572A22.502 22.502 0 0 0 23.76 0h-.03a.986.986 0 0 0-.97.95 1.014 1.014 0 0 0 .943 1.072c11.046.64 19.595 9.934 19.324 21.008-.271 11.074-9.265 19.938-20.329 20.036-11.064.098-20.213-8.606-20.679-19.674a1.028 1.028 0 0 0-1.055-.965 1.018 1.018 0 0 0-.704.325 1.03 1.03 0 0 0-.26.573v.279c.508 9.999 7.547 18.472 17.288 20.785 9.79 2.326 19.932-2.134 24.845-10.925a22.56 22.56 0 0 0-3.697-26.913l.007.02ZM22.514 41.347c10.182.063 18.564-8.002 18.905-18.19C41.76 12.97 33.937 4.36 23.774 3.74a1.007 1.007 0 0 0-.078 2.015c7.43.53 13.623 5.9 15.208 13.186a16.813 16.813 0 0 1-8.35 18.325 16.773 16.773 0 0 1-19.916-2.857 1.012 1.012 0 0 0-1.407 0 1.03 1.03 0 0 0 0 1.409 18.697 18.697 0 0 0 13.283 5.53ZM35.58 22.968c.235-6.919-4.95-12.825-11.834-13.48l-.106-.028a.972.972 0 0 1-.915-1.007 1.042 1.042 0 0 1 1.013-.972h.183c7.883.825 13.785 7.615 13.513 15.545-.273 7.93-6.626 14.299-14.547 14.58a1 1 0 0 1-1.013-.978c0-.55.437-1 .985-1.014 6.913-.186 12.487-5.727 12.721-12.646Zm-6.318 6.313a9.566 9.566 0 0 0 2.074-10.418 9.547 9.547 0 0 0-8.822-5.903 9.547 9.547 0 0 0-8.821 5.903 9.566 9.566 0 0 0 2.074 10.418 9.554 9.554 0 0 0 13.495 0Z" fill="#fff"/></svg>